<?xml version="1.0" encoding="utf-8"?>
<!-- Generator: Adobe Illustrator 24.0.2, SVG Export Plug-In . SVG Version: 6.00 Build 0)  -->
<svg version="1.1" id="Layer_1" focusable="false" xmlns="http://www.w3.org/2000/svg" xmlns:xlink="http://www.w3.org/1999/xlink"
	 x="0px" y="0px" viewBox="0 0 480 512" style="enable-background:new 0 0 480 512;" xml:space="preserve">
<style type="text/css">
	.st0{fill:#FFFFFF;}
</style>
<path class="st0" d="M472,334.4L336.1,256L472,177.6c7.7-4.4,10.3-14.2,5.9-21.9l-32-55.4c-4.4-7.7-14.2-10.3-21.9-5.9L288,172.9V16
	c0-8.8-7.2-16-16-16h-64c-8.8,0-16,7.2-16,16v156.9L56,94.4c-7.7-4.4-17.5-1.8-21.9,5.9l-32,55.4c-4.4,7.6-1.8,17.4,5.9,21.9
	L143.9,256L8,334.4c-7.7,4.4-10.3,14.2-5.9,21.9l32,55.4c4.4,7.6,14.2,10.3,21.9,5.9L192,339.1V496c0,8.8,7.2,16,16,16h64
	c8.8,0,16-7.2,16-16V339.1L424,417.6c7.7,4.4,17.5,1.8,21.9-5.9l32-55.4C482.3,348.6,479.6,338.9,472,334.4L472,334.4z"/>
</svg>
